<?xml version="1.0" standalone="no"?>
<!DOCTYPE svg PUBLIC "-//W3C//DTD SVG 20010904//EN"
 "http://www.w3.org/TR/2001/REC-SVG-20010904/DTD/svg10.dtd">
<svg version="1.0" xmlns="http://www.w3.org/2000/svg"
 width="243.360000pt" height="96.000000pt" viewBox="0 0 243.360000 96.000000"
 preserveAspectRatio="xMidYMid meet">
<metadata>
Created by potrace 1.13, written by Peter Selinger 2001-2015
</metadata>
<g transform="translate(0.000000,96.000000) scale(0.024000,-0.024000)"
fill="#000000" stroke="none">
<path d="M0 2000 l0 -2000 5070 0 5070 0 0 2000 0 2000 -3610 0 c-2604 0
-3610 -3 -3610 -11 0 -7 -18 -9 -57 -4 -32 4 -689 9 -1460 11 l-1403 4 0
-2000z m932 1455 c255 -53 447 -255 448 -472 l0 -43 -210 0 -210 0 0 29 c0 66
-45 130 -115 162 -47 22 -157 25 -218 7 -49 -15 -113 -73 -122 -111 -28 -108
53 -174 335 -272 314 -109 458 -222 520 -406 30 -87 25 -244 -10 -334 -31 -81
-129 -179 -221 -223 -121 -58 -174 -67 -379 -67 -213 0 -283 14 -422 87 -177
92 -277 234 -294 418 l-7 70 210 0 210 0 7 -52 c19 -142 111 -210 286 -211
133 -1 210 51 218 147 9 109 -48 164 -243 236 -218 80 -299 115 -374 161 -171
105 -261 246 -261 409 1 230 169 402 455 465 85 18 307 18 397 0z m6433 0
c217 -46 350 -187 377 -401 10 -77 9 -104 -5 -175 -30 -156 -106 -275 -315
-498 -59 -63 -148 -162 -199 -220 l-92 -106 330 -3 329 -2 0 -155 0 -155 -600
0 -600 0 0 133 1 132 286 300 c293 307 381 412 428 511 87 184 -6 368 -172
341 -87 -14 -156 -103 -170 -215 l-6 -52 -204 0 -204 0 5 33 c3 17 7 51 10 74
3 23 9 48 12 57 4 11 0 16 -12 17 -16 1 -17 2 -2 6 9 2 34 38 54 80 70 140
202 247 366 294 81 23 283 25 383 4z m-4577 -852 c171 -467 312 -851 312 -855
0 -5 -101 -8 -224 -8 l-224 0 -32 103 c-17 56 -39 127 -49 157 l-18 55 -278 0
-277 0 -47 -155 -47 -155 -227 -3 -227 -2 23 62 c13 35 153 420 312 855 l290
793 200 0 200 0 313 -847z m1162 267 c102 -319 187 -580 190 -580 3 0 88 261
189 580 l184 580 279 0 278 0 0 -855 0 -855 -215 0 -215 0 0 168 c0 92 9 352
20 576 12 225 19 410 18 412 -2 1 -91 -257 -199 -574 l-196 -577 -143 0 -143
0 -196 577 c-108 317 -197 573 -199 568 -2 -5 6 -198 18 -429 11 -231 20 -488
19 -571 l-1 -150 -214 0 -214 0 0 855 0 855 278 0 277 0 185 -580z m1790 -115
l0 -695 355 0 355 0 0 -160 0 -160 -570 0 -570 0 0 855 0 855 215 0 215 0 0
-695z m3875 320 c241 -66 434 -262 496 -503 26 -102 26 -253 -1 -356 -63 -246
-260 -443 -506 -506 -161 -41 -346 -20 -503 57 -102 50 -241 187 -293 288
-100 194 -112 400 -37 596 86 223 296 396 533 439 70 12 239 4 311 -15z
m-5540 -220 c16 -29 16 -29 -12 4 -15 19 -36 48 -47 65 -17 30 -17 30 12 -4
17 -19 38 -48 47 -65z m1033 -1339 c85 -39 145 -106 172 -193 11 -36 20 -76
20 -89 0 -24 0 -24 -115 -24 l-115 0 -6 28 c-20 83 -68 122 -153 122 -71 0
-114 -27 -148 -94 -25 -47 -27 -63 -31 -194 -6 -193 19 -270 101 -314 40 -22
145 -23 192 -4 l35 15 0 70 0 71 -80 0 -80 0 0 85 0 85 200 0 200 0 -2 -207
-3 -208 -47 -31 c-78 -53 -159 -76 -287 -81 -203 -10 -314 35 -400 161 -56 82
-73 148 -78 301 -7 202 24 317 114 416 81 90 165 120 328 116 108 -2 126 -5
183 -31z m-3904 -193 c126 -392 140 -433 146 -433 4 0 14 26 24 58 10 31 56
175 102 320 l85 262 159 0 160 0 0 -485 0 -485 -127 0 -126 0 6 173 c4 94 9
235 12 312 l6 140 -64 -180 c-35 -99 -84 -238 -108 -310 l-44 -130 -85 -3 -85
-3 -113 328 c-62 181 -110 310 -107 288 3 -22 8 -169 12 -327 l6 -288 -121 0
-122 0 0 485 0 485 159 0 159 0 66 -207z m1496 112 l0 -95 -220 0 -220 0 0
-95 0 -95 185 0 185 0 0 -90 0 -90 -185 0 -185 0 0 -110 0 -110 220 0 220 0 0
-95 0 -95 -340 0 -340 0 0 485 0 485 340 0 340 0 0 -95z m870 0 l0 -95 -145 0
-145 0 0 -390 0 -390 -120 0 -120 0 0 390 0 390 -145 0 -145 0 0 95 0 95 410
0 410 0 0 -95z m697 -375 c95 -256 175 -473 179 -483 5 -16 -4 -17 -127 -15
l-133 3 -26 83 -25 82 -160 -2 -160 -3 -24 -82 -24 -83 -133 0 -133 0 25 68
c14 37 90 243 169 457 79 215 148 403 154 418 l11 28 117 -3 117 -3 173 -465z
m1843 375 l0 -95 -220 0 -220 0 0 -95 0 -95 185 0 185 0 0 -90 0 -90 -185 0
-185 0 0 -110 0 -110 220 0 220 0 0 -95 0 -95 -340 0 -340 0 0 485 0 485 340
0 340 0 0 -95z m500 -195 l165 -290 3 290 2 290 120 0 120 0 0 -485 0 -485
-123 0 -122 0 -165 289 -165 288 -3 -288 -2 -289 -120 0 -120 0 0 485 0 485
123 0 122 0 165 -290z m1001 43 c-3 -20 -12 -38 -20 -41 -10 -3 -11 3 -6 29 9
39 13 49 24 49 4 0 5 -17 2 -37z m-6931 -87 l0 -104 -170 -58 c-93 -33 -170
-62 -170 -66 0 -3 77 -32 170 -63 l170 -57 0 -104 c0 -74 -3 -104 -12 -104 -7
0 -142 53 -300 117 l-288 118 0 95 0 96 283 116 c155 63 290 116 300 117 15 1
17 -10 17 -103z m6790 -14 l285 -118 0 -94 0 -94 -285 -118 c-157 -64 -291
-117 -297 -117 -10 -1 -13 26 -13 103 0 90 2 105 18 111 9 4 82 29 162 57 80
27 148 53 152 57 5 4 -31 20 -80 35 -48 16 -124 42 -169 58 l-83 30 0 104 c0
77 3 104 13 104 6 -1 140 -54 297 -118z"/>
<path d="M2191 2677 c-46 -150 -86 -278 -89 -284 -3 -10 35 -13 172 -13 97 0
176 3 176 6 0 6 -171 557 -174 561 -1 1 -39 -121 -85 -270z"/>
<path d="M9313 2925 c-206 -45 -374 -219 -419 -435 -70 -336 216 -658 566
-637 106 6 185 34 273 94 287 195 319 599 67 837 -136 128 -312 179 -487 141z
m240 -237 c45 -23 77 -81 77 -143 0 -45 -32 -122 -54 -131 -10 -4 -5 -14 22
-39 37 -33 37 -34 37 -112 0 -90 -20 -134 -77 -168 -28 -17 -50 -20 -148 -20
-63 1 -135 7 -159 14 l-44 12 6 51 c4 28 8 52 10 54 2 2 30 -1 63 -6 140 -23
204 -3 204 64 0 54 -28 70 -126 75 l-84 3 0 54 0 54 69 0 c60 0 74 3 100 26
40 33 42 76 5 100 -21 14 -41 16 -130 11 l-104 -7 0 54 0 53 58 12 c122 24
213 20 275 -11z"/>
<path d="M3930 1092 c-25 -80 -46 -151 -48 -159 -3 -10 18 -13 92 -13 53 0 96
3 96 7 0 7 -91 306 -94 310 0 0 -21 -64 -46 -145z"/>
</g>
</svg>
