<?xml version="1.0" standalone="no"?>
<!DOCTYPE svg PUBLIC "-//W3C//DTD SVG 20010904//EN"
 "http://www.w3.org/TR/2001/REC-SVG-20010904/DTD/svg10.dtd">
<svg version="1.0" xmlns="http://www.w3.org/2000/svg"
 width="444.000000pt" height="60.000000pt" viewBox="0 0 444.000000 60.000000"
 preserveAspectRatio="xMidYMid meet">
<metadata>
Created by potrace 1.13, written by Peter Selinger 2001-2015
</metadata>
<g transform="translate(0.000000,60.000000) scale(0.024000,-0.024000)"
fill="#000000" stroke="none">
<path d="M0 1250 l0 -1250 2870 0 2870 0 0 1250 0 1250 -2870 0 -2870 0 0
-1250z m1700 636 c71 -37 120 -105 120 -166 l0 -31 -87 3 c-79 3 -88 5 -91 23
-10 53 -74 77 -134 52 -20 -8 -39 -24 -43 -36 -14 -45 25 -74 168 -126 71 -25
139 -75 164 -120 26 -47 31 -127 9 -179 -18 -43 -77 -91 -132 -106 -69 -20
-220 -9 -274 19 -80 41 -121 94 -133 174 l-6 37 88 0 88 0 12 -41 c10 -31 20
-44 46 -55 105 -43 196 34 121 102 -13 12 -66 38 -118 58 -99 38 -167 86 -193
137 -8 15 -15 54 -15 85 0 89 42 142 140 178 62 22 221 17 270 -8z m2615 5
c109 -49 143 -176 81 -298 -13 -27 -67 -95 -119 -153 l-95 -105 129 -3 129 -3
0 -64 0 -65 -245 0 -245 0 0 56 0 56 120 126 c172 183 196 221 178 290 -10 38
-44 58 -82 48 -27 -7 -56 -51 -56 -86 0 -19 -6 -20 -88 -20 l-89 0 7 43 c13
81 60 143 135 178 55 26 185 26 240 0z m-2045 6 c0 -2 56 -156 125 -342 69
-187 125 -343 125 -347 0 -5 -42 -8 -93 -8 l-93 0 -20 63 -20 62 -111 3 -110
3 -19 -66 -19 -65 -96 0 -97 0 119 328 c66 180 124 337 129 350 9 20 16 22 95
22 47 0 85 -1 85 -3z m594 -199 c36 -112 68 -216 72 -231 3 -15 9 -25 13 -22
3 4 38 106 76 228 l71 222 117 3 117 3 0 -351 0 -350 -91 0 -92 0 6 218 6 217
-73 -215 -73 -215 -64 0 -64 0 -78 225 c-73 211 -77 221 -72 160 2 -36 8 -138
11 -227 l7 -163 -92 0 -91 0 0 350 0 350 115 0 114 0 65 -202z m746 -83 l0
-285 145 0 145 0 0 -65 0 -65 -235 0 -235 0 0 350 0 350 90 0 90 0 0 -285z
m-1835 -659 l40 -129 40 129 40 129 68 3 67 3 0 -201 0 -200 -50 0 -50 0 -1
108 0 107 -38 -105 -38 -105 -38 0 -38 0 -38 105 -38 105 0 -107 -1 -108 -50
0 -50 0 0 200 0 201 67 -3 67 -3 41 -129z m595 94 l0 -40 -90 0 -90 0 0 -40 0
-40 75 0 75 0 0 -40 0 -40 -75 0 -75 0 0 -40 0 -40 90 0 90 0 0 -40 0 -40
-140 0 -140 0 0 200 0 200 140 0 140 0 0 -40z m360 0 l0 -40 -60 0 -60 0 0
-160 0 -160 -55 0 -55 0 0 160 0 159 -57 3 -58 3 -3 38 -3 37 175 0 176 0 0
-40z m258 -85 c24 -66 56 -155 72 -197 l29 -78 -58 0 c-57 0 -58 1 -67 33 -10
32 -10 32 -74 32 -64 0 -64 0 -72 -32 -8 -33 -9 -33 -67 -33 l-59 0 69 188
c38 103 71 193 74 200 3 9 21 12 57 10 l51 -3 45 -120z m367 109 c39 -18 59
-45 69 -92 l8 -32 -51 0 c-46 0 -53 3 -61 25 -10 26 -46 41 -78 31 -48 -15
-65 -161 -26 -213 17 -22 29 -28 60 -28 37 0 39 2 42 33 3 30 1 32 -27 32 -29
0 -31 3 -31 35 l0 35 85 0 86 0 -3 -86 c-3 -82 -5 -88 -31 -108 -22 -16 -46
-22 -110 -24 -73 -3 -86 -1 -116 20 -67 45 -76 68 -76 183 0 115 9 138 75 183
40 27 134 30 185 6z m405 -24 l0 -40 -90 0 -90 0 0 -40 0 -40 75 0 75 0 0 -40
0 -40 -75 0 -75 0 0 -40 0 -40 90 0 90 0 0 -40 0 -40 -140 0 -140 0 0 200 0
200 140 0 140 0 0 -40z m195 -73 l60 -107 3 110 3 110 54 0 55 0 0 -200 0
-201 -57 3 -57 3 -63 110 -63 110 0 -112 0 -113 -55 0 -55 0 0 200 0 201 57
-3 57 -3 61 -108z m-2946 16 c0 -10 -4 -27 -9 -38 -7 -16 -9 -13 -9 18 -1 20
4 37 9 37 6 0 10 -8 9 -17z m531 -47 l0 -45 -71 -23 -71 -22 71 -24 71 -24 0
-44 c0 -24 -5 -44 -10 -44 -6 0 -62 21 -125 47 l-115 46 0 42 0 42 113 46 c61
25 118 46 125 47 8 0 12 -15 12 -44z m2772 -3 l118 -48 0 -40 0 -40 -118 -48
c-64 -26 -120 -47 -124 -47 -5 0 -8 20 -8 44 l0 45 55 20 c31 12 61 21 68 22
7 0 -18 12 -55 26 l-68 25 0 44 c0 24 3 44 8 44 4 0 60 -21 124 -47z"/>
<path d="M2157 1600 c-14 -47 -29 -97 -32 -112 l-7 -28 66 0 c77 0 74 -15 27
136 l-28 89 -26 -85z"/>
<path d="M2872 901 c-17 -56 -15 -61 22 -61 l34 0 -16 50 c-9 28 -19 50 -22
50 -4 0 -12 -17 -18 -39z"/>
<path d="M5770 1250 l0 -1250 6365 0 6365 0 0 1250 0 1250 -6365 0 -6365 0 0
-1250z m2480 1019 c3 -1 8 -1 12 0 36 5 237 -118 238 -145 0 -7 7 -14 15 -18
8 -3 15 -12 15 -20 0 -8 3 -16 8 -18 13 -6 50 -92 60 -143 10 -47 9 -141 -2
-193 -12 -59 -67 -155 -120 -212 -9 -9 -11 -21 -6 -30 4 -8 15 -48 24 -87 20
-88 14 -214 -15 -315 -7 -24 -13 -47 -13 -53 -2 -17 -59 -130 -68 -133 -4 -2
-8 -8 -8 -13 0 -16 -75 -121 -112 -156 -91 -89 -178 -160 -178 -146 0 4 -4 3
-8 -3 -11 -16 -78 -54 -96 -54 -9 0 -16 -4 -16 -9 0 -5 -14 -13 -32 -16 -18
-4 -39 -11 -48 -15 -35 -18 -68 -29 -110 -38 -45 -10 -232 -28 -260 -25 -8 1
-40 4 -71 7 -178 15 -408 122 -528 246 -66 68 -91 97 -91 105 0 5 -11 23 -25
41 -14 18 -25 40 -25 48 0 9 -4 16 -10 16 -5 0 -10 7 -10 15 0 9 -9 41 -20 72
-11 32 -20 72 -20 90 0 29 -5 34 -47 53 -87 38 -193 125 -193 157 0 7 -4 13
-9 13 -13 0 -55 93 -69 150 -29 118 23 299 111 393 20 20 40 37 46 37 6 0 11
4 11 10 0 22 153 68 245 75 42 3 143 -26 183 -51 25 -17 27 -16 82 34 14 12
30 22 37 22 7 0 13 5 13 10 0 6 6 10 14 10 7 0 19 7 26 15 7 8 21 15 31 15 11
0 19 5 19 10 0 6 6 10 13 10 7 0 30 9 50 19 63 32 184 54 307 56 63 0 128 -3
144 -7 60 -16 106 -19 106 -8 0 17 107 119 138 133 74 31 228 59 262 46z
m4490 -89 l0 -50 -36 0 c-70 0 -118 -62 -95 -122 16 -43 39 -58 87 -58 l44 0
0 -55 0 -55 -58 0 c-57 0 -111 18 -140 47 -34 34 -62 105 -62 159 0 29 5 54
10 54 6 0 10 9 10 21 0 24 66 94 95 102 11 2 48 5 83 6 l62 1 0 -50z m258 -2
l3 -48 -36 0 c-42 0 -90 -22 -99 -45 -3 -9 -6 -34 -6 -54 0 -49 27 -74 88 -81
l47 -5 0 -50 0 -50 -62 -3 c-52 -2 -68 1 -101 22 -70 44 -87 78 -87 176 0 89
2 93 55 147 36 36 57 42 130 40 l65 -2 3 -47z m252 3 c0 -48 0 -48 -38 -54
-21 -4 -46 -13 -57 -21 -19 -14 -16 -15 38 -16 l57 0 0 -50 0 -50 -55 0 c-31
0 -55 -4 -55 -10 0 -14 44 -30 81 -30 29 0 29 -1 29 -55 l0 -55 -53 0 c-72 0
-110 20 -167 87 -11 13 -15 42 -15 108 0 66 4 95 15 109 68 81 71 83 163 85
l57 1 0 -49z m-1270 -421 c5 -363 6 -387 25 -415 23 -34 47 -55 57 -49 4 2 9
0 13 -6 3 -5 31 -10 61 -10 41 0 64 6 94 25 22 14 40 32 40 40 0 8 5 15 10 15
6 0 10 28 10 65 0 37 -4 65 -10 65 -5 0 -10 6 -10 14 0 8 -14 26 -32 41 -31
26 -36 27 -125 23 l-93 -4 0 127 0 128 57 7 c65 8 214 -2 222 -14 3 -5 18 -12
34 -16 15 -3 35 -14 45 -24 10 -10 33 -27 52 -39 19 -12 42 -32 50 -44 8 -12
20 -27 27 -34 7 -7 15 -24 19 -39 3 -14 10 -26 14 -26 5 0 12 -21 15 -47 15
-108 20 -84 20 89 l0 183 133 3 132 3 0 -243 c0 -241 0 -243 24 -270 17 -21
32 -28 59 -28 67 0 67 2 67 286 l0 254 134 0 c113 0 135 -2 140 -16 11 -27 7
-522 -4 -529 -5 -3 -10 -18 -10 -33 0 -61 -66 -142 -148 -183 l-43 -21 3 -163
3 -162 -116 -2 c-64 -1 -128 1 -142 4 l-27 7 0 164 c0 145 -2 164 -16 164 -45
0 -150 93 -161 143 -3 15 -9 27 -13 27 -4 0 -11 37 -16 83 l-8 82 -8 -55 c-5
-30 -12 -57 -16 -60 -4 -3 -15 -21 -26 -42 -28 -55 -124 -148 -153 -148 -7 0
-13 -4 -13 -9 0 -7 -37 -20 -115 -39 -24 -6 -160 -6 -195 0 -58 10 -162 49
-180 68 -3 3 -17 13 -33 23 -15 10 -39 37 -55 60 -15 23 -30 43 -34 45 -4 2
-10 19 -14 38 -8 44 -18 43 -39 -3 -34 -72 -132 -182 -162 -183 -7 0 -13 -4
-13 -10 0 -5 -16 -12 -35 -16 -19 -3 -35 -10 -35 -15 0 -5 -10 -7 -22 -5 -13
2 -28 -1 -35 -6 -7 -6 -38 -7 -70 -4 -32 3 -66 6 -76 6 -9 1 -29 8 -45 16 -15
7 -33 14 -39 14 -7 0 -13 4 -13 8 0 5 -12 14 -26 21 -21 9 -30 8 -53 -8 -55
-40 -223 -73 -265 -53 -11 6 -43 15 -70 22 -26 6 -54 16 -61 23 -7 7 -23 19
-36 27 -21 14 -59 51 -86 83 -6 8 -20 34 -32 58 l-20 44 -1 -121 c0 -97 -3
-123 -14 -127 -21 -8 -246 -4 -246 4 0 3 -22 9 -50 13 -27 4 -52 10 -54 15 -3
5 -17 12 -32 15 -14 4 -31 11 -37 16 -7 6 -36 28 -64 50 -29 22 -61 53 -70 68
-10 15 -23 32 -29 37 -18 15 -64 107 -64 127 0 9 -4 18 -10 20 -27 9 -28 314
-1 373 6 11 19 42 31 69 12 26 31 59 43 73 77 86 144 146 185 163 26 12 56 26
67 33 12 7 81 13 183 15 l162 4 0 -136 0 -136 -59 0 c-33 0 -63 -4 -66 -10 -3
-5 -27 -10 -53 -10 -84 0 -176 -69 -188 -143 -4 -20 -11 -40 -15 -43 -13 -7
-11 -134 1 -134 6 0 10 -12 10 -26 0 -42 48 -109 94 -132 75 -37 96 -42 181
-42 57 0 85 -4 88 -12 3 -8 6 -7 6 4 1 9 -3 20 -9 23 -12 8 -13 112 -1 119 4
3 11 23 13 44 6 38 59 136 88 160 37 32 120 82 146 88 16 4 35 13 42 21 18 18
151 18 177 -1 11 -7 33 -16 50 -20 16 -4 32 -11 35 -14 3 -4 19 -14 36 -23 27
-14 32 -14 55 0 13 9 25 19 27 23 2 4 20 10 40 14 20 4 43 13 50 21 19 18 155
18 171 -1 6 -7 29 -16 51 -20 22 -3 40 -10 40 -15 0 -4 11 -13 24 -19 14 -6
43 -27 65 -47 27 -25 41 -32 45 -23 3 7 3 3 0 -9 -3 -14 2 -28 16 -41 11 -10
27 -39 34 -63 13 -40 14 -11 15 282 1 179 4 329 8 333 4 3 66 5 137 4 l131 -3
5 -385z m3170 -170 l0 -190 -35 0 -35 0 0 190 0 190 35 0 35 0 0 -190z m290
167 c55 -37 75 -81 75 -167 0 -86 -20 -130 -75 -167 -28 -20 -46 -23 -126 -23
l-94 0 0 190 0 190 94 0 c80 0 98 -3 126 -23z m390 -7 l0 -30 -90 0 -90 0 0
-50 0 -50 80 0 80 0 0 -30 0 -30 -80 0 -80 0 0 -50 0 -50 90 0 90 0 0 -30 0
-30 -130 0 -130 0 0 190 0 190 130 0 130 0 0 -30z m210 -94 l75 -120 3 122 3
122 39 0 40 0 0 -190 0 -190 -42 0 -43 0 -75 121 -75 120 -3 -120 -3 -121 -39
0 -40 0 0 191 0 190 42 -3 c42 -3 42 -3 118 -122z m500 94 l0 -30 -60 0 -60 0
0 -160 0 -160 -35 0 -35 0 0 160 0 160 -60 0 -60 0 0 30 0 30 155 0 155 0 0
-30z m120 -160 l0 -190 -35 0 -35 0 0 190 0 190 35 0 35 0 0 -190z m350 160
l0 -30 -60 0 -60 0 0 -160 0 -160 -35 0 -35 0 0 160 0 160 -60 0 -60 0 0 30 0
30 155 0 155 0 0 -30z m134 -53 l38 -82 41 83 41 82 43 0 c24 0 43 -1 43 -3 0
-2 -29 -58 -65 -125 -61 -114 -65 -125 -65 -186 l0 -66 -35 0 -35 0 0 65 c0
62 -4 73 -65 185 -36 66 -65 122 -65 125 0 3 19 5 43 5 l42 -1 39 -82z m-1303
-433 c27 -14 59 -65 59 -94 0 -5 -18 -10 -40 -10 -32 0 -40 4 -40 18 0 28 -21
42 -61 42 -40 0 -63 -19 -57 -47 3 -18 17 -27 110 -67 93 -40 115 -111 53
-173 -35 -35 -36 -35 -110 -31 -68 3 -78 6 -104 33 -17 17 -33 42 -36 58 -7
26 -6 27 34 27 29 0 41 -4 41 -14 0 -26 30 -46 69 -46 42 0 61 14 61 46 0 23
-28 40 -102 63 -101 33 -128 141 -46 191 41 25 126 27 169 4z m349 -14 l0 -30
-85 0 -85 0 0 -45 0 -45 75 0 75 0 0 -30 0 -30 -75 0 -75 0 0 -50 0 -50 85 0
85 0 0 -30 0 -30 -125 0 -125 0 0 185 0 185 125 0 125 0 0 -30z m260 15 c38
-20 50 -43 50 -99 0 -36 -6 -52 -29 -78 l-29 -33 40 -73 41 -73 -43 3 c-42 3
-45 5 -78 66 -31 57 -36 62 -68 62 l-34 0 0 -65 0 -65 -35 0 -35 0 0 185 0
185 95 0 c66 0 105 -5 125 -15z m196 -120 c24 -72 45 -123 48 -115 3 8 23 67
44 130 l39 115 41 3 42 3 -51 -143 c-28 -79 -58 -162 -66 -185 -14 -40 -17
-43 -53 -43 -37 0 -39 1 -58 58 -11 31 -40 115 -66 185 l-46 128 42 -3 42 -3
42 -130z m324 -50 l0 -185 -35 0 -35 0 0 185 0 185 35 0 35 0 0 -185z m300
170 c32 -16 60 -61 60 -95 0 -16 -6 -20 -35 -20 -24 0 -35 5 -35 15 0 27 -38
55 -74 55 -56 0 -76 -35 -76 -130 0 -95 20 -130 76 -130 36 0 74 28 74 55 0
10 11 15 35 15 29 0 35 -4 35 -20 0 -34 -28 -79 -60 -95 -42 -22 -128 -19
-167 5 -51 31 -68 72 -68 170 0 98 17 139 68 170 39 24 125 27 167 5z m360
-15 l0 -30 -85 0 -85 0 0 -45 0 -45 75 0 75 0 0 -30 0 -30 -75 0 -75 0 0 -50
0 -50 85 0 85 0 0 -30 0 -30 -125 0 -125 0 0 185 0 185 125 0 125 0 0 -30z
m251 14 c27 -14 59 -65 59 -94 0 -5 -18 -10 -40 -10 -32 0 -40 4 -40 18 0 28
-21 42 -61 42 -40 0 -63 -19 -57 -47 3 -18 17 -27 110 -67 93 -40 115 -111 53
-173 -35 -35 -36 -35 -110 -31 -68 3 -78 6 -104 33 -17 17 -33 42 -36 58 -7
26 -6 27 34 27 29 0 41 -4 41 -14 0 -26 30 -46 69 -46 42 0 61 14 61 46 0 23
-28 40 -102 63 -101 33 -128 141 -46 191 41 25 126 27 169 4z m-9051 -604 c0
-26 -4 -30 -28 -30 -39 0 -93 -28 -99 -51 -3 -11 -9 -19 -13 -19 -8 0 1 -49
15 -83 9 -23 45 -37 91 -37 32 0 34 -2 34 -35 l0 -35 -50 0 c-30 0 -63 7 -84
19 -19 11 -37 18 -40 15 -3 -2 -4 -1 -1 2 2 4 -7 21 -20 39 -20 25 -25 44 -25
87 0 51 3 58 43 100 50 53 56 56 125 57 51 1 52 1 52 -29z m570 -15 l0 -45 53
0 c56 0 81 -14 105 -55 10 -18 11 -16 12 18 0 36 1 37 35 37 l35 0 0 -65 c0
-61 14 -115 31 -115 34 0 39 13 39 96 l0 84 35 0 35 0 0 -74 c0 -87 -12 -128
-43 -141 -18 -9 -21 -17 -19 -53 l4 -43 -39 3 c-36 3 -38 5 -39 39 0 27 -10
45 -41 78 -38 38 -42 40 -48 22 -10 -33 -59 -61 -106 -61 -37 0 -48 5 -81 41
l-38 41 0 119 0 119 35 0 c35 0 35 0 35 -45z m730 15 c0 -27 -3 -30 -29 -30
-17 0 -46 -9 -65 -21 -82 -48 -44 -169 53 -169 l36 0 -3 45 c-4 40 0 49 31 80
32 32 40 35 91 35 48 0 61 -4 85 -27 16 -16 31 -37 34 -48 4 -19 5 -19 6 2 0
11 15 33 32 47 25 21 41 26 85 26 47 0 58 -4 87 -31 28 -27 32 -38 32 -82 0
-31 -5 -52 -12 -54 -7 -3 -13 -11 -13 -18 0 -8 -9 -17 -20 -20 -11 -3 -20 -11
-20 -16 0 -5 -23 -9 -50 -9 -43 0 -56 5 -85 32 -19 17 -36 41 -36 52 -2 20 -2
19 -6 -1 -2 -13 -9 -23 -14 -23 -5 0 -9 -6 -9 -12 0 -21 -58 -48 -101 -48 -31
0 -48 7 -72 30 l-32 30 -3 -30 c-3 -29 -5 -30 -58 -30 -30 0 -54 5 -54 10 0 6
-7 10 -15 10 -18 0 -65 47 -65 65 0 8 -4 15 -10 15 -6 0 -10 28 -10 65 0 36 3
65 8 65 4 0 14 13 23 28 21 37 73 61 132 62 46 0 47 -1 47 -30z m2390 0 c0
-27 -3 -30 -32 -30 -33 0 -108 -29 -108 -41 0 -5 30 -9 68 -11 l67 -3 3 -32 3
-32 -80 -3 -81 -3 25 -29 c19 -22 36 -30 77 -35 51 -6 53 -7 56 -38 l3 -33
-50 0 c-31 0 -63 7 -85 19 -19 11 -37 17 -42 13 -4 -4 -4 -2 -1 4 4 6 -4 21
-17 33 -50 47 -41 155 17 208 43 39 50 41 120 42 57 1 57 1 57 -29z m-814 -17
c1 -31 -1 -33 -32 -33 -23 0 -37 6 -44 21 -16 29 5 51 44 47 27 -3 31 -7 32
-35z m2006 30 c10 -48 5 -59 -28 -61 -36 -3 -59 23 -48 52 6 16 72 23 76 9z
m-2163 -27 c6 -7 9 -21 5 -30 -6 -17 23 -21 119 -16 l38 2 -3 -114 -3 -113
-32 -3 c-22 -2 -33 1 -33 9 0 10 -3 10 -12 1 -7 -7 -33 -12 -58 -12 -75 0 -84
17 -89 166 l-3 124 30 0 c16 0 35 -6 41 -14z m1275 -1 c3 -8 3 -22 0 -30 -5
-12 3 -15 35 -15 34 0 41 -3 41 -20 0 -17 -7 -20 -41 -20 -33 0 -40 -3 -35
-16 3 -9 6 -40 6 -70 l0 -54 35 0 c31 0 35 -3 35 -25 0 -23 -3 -25 -47 -25
-51 1 -83 17 -83 43 0 9 -4 19 -10 22 -6 4 -10 53 -10 116 l0 109 34 0 c21 0
36 -6 40 -15z m-3786 -63 c2 -7 10 -19 18 -26 8 -8 14 -23 14 -33 1 -11 6 -6
15 14 22 50 55 66 127 61 35 -3 64 -10 66 -16 2 -7 11 -20 20 -29 36 -36 8
-162 -35 -163 -7 0 -13 -4 -13 -10 0 -19 -90 -11 -120 10 -15 11 -31 16 -35
12 -5 -4 -6 -2 -2 3 3 6 -1 21 -9 35 -8 15 -14 19 -14 10 -1 -19 -35 -60 -49
-60 -6 0 -11 -4 -11 -10 0 -5 -21 -10 -47 -10 -118 0 -174 140 -85 211 23 18
37 20 91 17 39 -3 66 -9 69 -16z m1790 -7 c12 -11 22 -29 22 -40 0 -17 3 -16
19 9 27 41 57 55 117 56 87 0 140 -64 77 -93 -16 -6 -30 -14 -33 -17 -3 -4
-23 -15 -46 -26 -33 -16 -38 -22 -28 -32 7 -7 19 -12 26 -12 20 1 48 26 48 43
0 24 37 42 56 26 12 -10 14 -2 14 50 l0 61 70 0 c55 0 70 -3 70 -15 0 -8 -13
-21 -29 -29 -36 -19 -41 -32 -41 -117 l0 -69 -35 0 c-34 0 -35 1 -36 43 0 33
-2 38 -9 21 -15 -37 -63 -64 -114 -64 -25 0 -46 4 -46 9 0 9 -38 24 -53 22 -5
-1 -6 2 -3 7 3 5 -1 18 -9 28 -12 16 -14 16 -15 3 0 -9 -14 -28 -31 -43 -26
-24 -38 -27 -80 -24 l-49 3 0 -42 c0 -42 0 -43 -35 -43 l-35 0 0 119 0 120 35
37 c33 35 37 36 92 32 38 -2 66 -11 81 -23z m609 -11 c21 -26 23 -37 21 -109
-3 -75 -4 -80 -26 -83 -13 -2 -30 2 -38 8 -10 9 -14 9 -14 1 0 -6 -18 -11 -44
-11 -35 0 -50 6 -80 33 -33 30 -36 38 -36 87 0 46 4 57 31 83 29 27 35 29 96
25 58 -4 69 -8 90 -34z m368 6 c4 -17 14 -45 23 -63 l16 -32 12 40 c24 86 23
85 65 85 44 0 43 1 29 -34 -6 -17 -6 -26 0 -26 6 0 10 7 10 15 0 23 54 45 109
45 41 0 55 -5 81 -28 32 -30 33 -62 1 -62 -9 0 -33 -11 -52 -25 -20 -13 -39
-21 -43 -18 -3 4 -6 1 -6 -5 0 -7 -7 -12 -16 -12 -14 0 -14 -1 0 -16 22 -21
48 -14 64 19 18 37 46 51 72 35 27 -17 18 -45 -27 -85 -30 -28 -44 -33 -85
-33 -26 0 -48 5 -48 10 0 6 -6 10 -14 10 -26 0 -58 58 -58 103 l0 42 -12 -30
c-42 -110 -58 -135 -86 -135 -22 0 -31 7 -44 38 -9 20 -21 44 -26 53 -5 9 -12
33 -15 53 -4 20 -11 36 -16 36 -5 0 -9 11 -9 25 0 22 4 25 34 25 30 0 35 -4
41 -30z m901 7 c27 -24 28 -29 29 -113 l0 -89 -35 0 -35 0 0 80 c0 66 -3 82
-18 93 -16 12 -21 11 -38 -4 -16 -14 -19 -31 -19 -96 l0 -78 -31 0 -31 0 4 95
c2 68 7 98 17 104 7 5 11 13 8 18 -3 5 23 10 58 11 54 3 66 0 91 -21z m378 2
c37 -29 35 -65 -4 -74 -16 -4 -30 -10 -30 -15 0 -4 -11 -11 -25 -14 -14 -4
-25 -11 -25 -16 0 -6 -7 -10 -15 -10 -9 0 -12 -6 -9 -15 12 -31 74 -8 74 28 0
7 11 19 24 27 21 11 27 10 40 -3 14 -13 13 -19 -5 -56 -11 -23 -26 -41 -34
-41 -8 0 -15 -4 -15 -10 0 -17 -89 -11 -118 7 -47 31 -61 55 -62 104 0 41 4
51 35 78 30 26 44 31 89 31 39 0 60 -6 80 -21z m196 1 c0 -13 -7 -20 -19 -20
-35 0 -51 -38 -51 -118 l0 -73 -32 3 -33 3 -3 113 -3 112 71 0 c63 0 70 -2 70
-20z m171 3 c16 -9 33 -29 38 -43 8 -22 10 -21 10 18 l1 42 70 0 c60 0 70 -3
71 -17 1 -17 2 -17 6 0 3 12 15 17 39 17 l35 0 -3 -112 -3 -113 -35 0 -35 0
-3 93 c-2 83 -5 92 -22 92 -34 0 -50 -38 -50 -117 l0 -73 -35 0 c-34 0 -35 1
-35 43 -1 42 -1 42 -15 16 -8 -14 -25 -34 -39 -43 -29 -19 -97 -21 -114 -4 -9
9 -12 0 -12 -40 0 -51 -1 -52 -30 -52 l-30 0 0 119 0 120 34 35 c29 31 39 36
81 36 26 0 60 -7 76 -17z m489 -3 c0 -18 -7 -20 -61 -20 -70 0 -78 -19 -14
-32 43 -9 63 -23 76 -53 9 -20 9 -20 8 0 -3 48 3 65 30 94 26 28 35 31 89 31
50 0 66 -4 86 -24 33 -30 33 -54 0 -66 -15 -6 -39 -19 -54 -30 -15 -11 -30
-17 -34 -13 -3 3 -6 1 -6 -5 0 -7 -7 -12 -16 -12 -14 0 -14 -2 0 -15 25 -26
66 -12 66 23 0 16 28 41 45 41 6 0 18 -6 28 -13 17 -13 17 -16 3 -44 -24 -46
-67 -72 -120 -72 -25 0 -46 5 -46 10 0 6 -6 10 -14 10 -8 0 -24 12 -35 28 -15
20 -20 23 -21 10 0 -10 -10 -26 -22 -38 -18 -17 -35 -20 -100 -20 -77 0 -78 0
-78 25 0 24 2 25 66 25 57 0 65 2 55 14 -7 8 -25 18 -41 21 -16 3 -41 18 -55
33 -22 22 -26 33 -21 61 3 19 11 38 18 43 7 4 48 8 91 8 70 0 77 -2 77 -20z
m430 0 c0 -16 -8 -19 -55 -22 -65 -4 -74 -20 -16 -31 30 -6 48 -18 67 -43 25
-32 26 -37 13 -62 -25 -48 -34 -52 -112 -52 -59 0 -76 3 -81 16 -12 30 -5 34
60 34 73 0 84 17 23 34 -56 17 -79 43 -79 92 0 25 5 44 13 47 6 3 47 6 90 6
70 1 77 -1 77 -19z m-2550 -280 c0 -5 -7 -10 -15 -10 -8 0 -15 5 -15 10 0 6 7
10 15 10 8 0 15 -4 15 -10z m-650 -54 c0 -11 -19 -15 -25 -6 -3 5 1 10 9 10 9
0 16 -2 16 -4z"/>
<path d="M8153 2073 c-12 -3 -27 -11 -33 -19 -7 -8 -18 -14 -24 -14 -6 0 -19
-11 -28 -24 -17 -23 -17 -24 48 -65 65 -42 214 -181 214 -201 0 -21 17 -9 38
28 17 31 20 49 16 97 -7 84 -40 144 -95 171 -45 23 -98 33 -136 27z"/>
<path d="M6707 1729 c-22 -11 -51 -40 -68 -66 -40 -64 -39 -109 7 -233 3 -8
22 -27 43 -42 l37 -26 18 70 c18 70 81 206 123 264 l23 32 -23 6 c-60 17 -122
16 -160 -5z"/>
<path d="M7775 1606 c-15 -11 -17 -21 -12 -61 10 -69 31 -99 65 -90 37 9 37
10 36 70 0 44 -4 58 -24 75 -27 24 -40 25 -65 6z"/>
<path d="M7270 1494 c-41 -12 -42 -101 -1 -145 23 -25 61 -20 72 8 14 36 -7
117 -35 135 -12 8 -12 8 -36 2z"/>
<path d="M7665 1277 c-73 -15 -160 -40 -169 -49 -6 -4 -18 -8 -29 -8 -10 0
-16 -4 -12 -9 3 -5 -3 -12 -14 -16 -30 -9 -108 -92 -131 -139 -20 -43 -36
-186 -20 -186 5 0 13 -14 19 -30 17 -50 79 -118 139 -151 62 -36 72 -38 199
-46 l92 -5 86 42 c57 27 101 57 127 85 47 50 88 119 88 145 0 11 4 21 8 24 12
7 7 126 -6 159 -7 16 -12 31 -12 35 0 15 -103 103 -138 118 -75 31 -165 44
-227 31z m97 -104 c37 -15 48 -34 48 -88 0 -32 -57 -125 -76 -125 -22 0 -25
-34 -8 -106 l17 -73 46 26 c47 26 100 74 102 93 3 19 5 25 17 48 16 29 40 28
53 -2 9 -18 7 -31 -11 -65 -24 -49 -89 -121 -107 -121 -7 0 -13 -4 -13 -10 0
-5 -6 -10 -13 -10 -7 0 -31 -8 -53 -19 -57 -27 -183 -24 -244 7 -89 44 -133
104 -89 121 19 6 30 2 57 -25 38 -37 73 -50 147 -57 l51 -4 -20 81 c-10 45
-20 82 -21 84 -2 2 -14 5 -27 7 -31 6 -111 50 -128 70 -7 9 -13 32 -13 53 -1
28 5 44 26 65 15 15 34 27 41 27 8 0 19 6 26 14 21 26 135 31 192 9z"/>
<path d="M10788 1564 c-10 -3 -18 -9 -18 -14 0 -5 -9 -11 -19 -15 -56 -18 -85
-157 -46 -220 41 -66 64 -80 142 -84 94 -4 122 11 121 67 0 45 16 82 37 82 8
0 15 5 15 10 0 6 15 10 33 11 28 0 30 2 12 10 -11 6 -33 32 -48 59 -39 70 -77
94 -152 97 -33 1 -68 -1 -77 -3z"/>
<path d="M11250 1558 c-21 -11 -25 -22 -28 -66 -3 -46 -7 -55 -37 -78 -25 -19
-43 -25 -64 -22 -17 2 -28 1 -25 -4 3 -4 12 -8 20 -8 8 0 30 -24 48 -52 43
-67 71 -90 117 -98 51 -9 130 4 144 24 7 8 14 14 16 11 3 -2 15 12 28 31 20
28 24 47 24 105 0 74 -16 110 -59 133 -10 6 -22 15 -26 20 -11 16 -130 18
-158 4z"/>
<path d="M12572 1415 c0 -16 2 -22 5 -12 2 9 2 23 0 30 -3 6 -5 -1 -5 -18z"/>
<path d="M15300 1590 l0 -130 36 0 c76 0 108 47 102 148 -4 55 -8 68 -32 88
-18 17 -40 24 -67 24 l-39 0 0 -130z"/>
<path d="M16300 1160 c0 -60 0 -60 29 -60 36 0 83 17 93 33 28 45 -8 87 -75
87 l-47 0 0 -60z"/>
<path d="M9423 546 c-18 -8 -23 -19 -23 -48 0 -22 5 -38 12 -38 6 0 8 -3 5 -7
-4 -3 3 -13 14 -21 59 -41 108 71 50 115 -19 15 -28 14 -58 -1z"/>
<path d="M10217 542 c-24 -26 -22 -85 3 -107 18 -16 23 -17 45 -5 21 11 25 21
25 58 0 64 -39 92 -73 54z"/>
<path d="M10457 542 c-24 -26 -22 -85 3 -107 18 -16 23 -17 45 -5 21 11 25 21
25 58 0 64 -39 92 -73 54z"/>
<path d="M11554 544 c3 -9 6 -40 6 -70 l0 -54 35 0 35 0 0 70 0 70 -41 0 c-33
0 -40 -3 -35 -16z"/>
<path d="M8926 545 c-13 -10 -19 -27 -19 -56 0 -33 5 -44 25 -57 59 -36 109
59 56 108 -26 24 -36 24 -62 5z"/>
<path d="M9163 543 c-34 -23 -32 -85 4 -108 24 -16 28 -16 52 -2 36 22 41 77
10 106 -27 25 -36 25 -66 4z"/>
<path d="M10716 545 c-11 -8 -16 -15 -11 -15 5 0 4 -5 -3 -12 -7 -7 -12 -27
-12 -45 0 -26 4 -33 20 -33 11 0 20 -4 20 -10 0 -5 6 -10 13 -10 51 2 70 87
27 121 -30 22 -30 22 -54 4z"/>
<path d="M10952 540 c-31 -29 -27 -32 13 -13 19 9 32 20 29 25 -8 13 -18 10
-42 -12z"/>
<path d="M11313 543 c-31 -21 -32 -81 -1 -107 19 -17 24 -17 46 -4 20 13 25
24 25 57 0 29 -6 46 -19 56 -23 18 -24 18 -51 -2z"/>
<path d="M12032 540 c-31 -29 -27 -32 13 -13 19 9 32 20 29 25 -8 13 -18 10
-42 -12z"/>
<path d="M12970 535 c-13 -14 -20 -28 -17 -32 4 -3 7 -1 7 5 0 6 16 16 36 22
27 9 33 15 23 21 -20 13 -23 12 -49 -16z"/>
<path d="M13352 540 c-12 -12 -22 -28 -22 -38 0 -9 -3 -27 -6 -39 -5 -19 -2
-23 15 -23 11 0 21 -4 21 -10 0 -5 8 -10 18 -10 55 1 77 85 32 121 -31 23 -32
23 -58 -1z"/>
<path d="M14045 547 c-38 -46 -38 -47 3 -24 22 12 38 25 36 29 -7 12 -28 9
-39 -5z"/>
</g>
</svg>
