<?xml version="1.0" standalone="no"?>
<!DOCTYPE svg PUBLIC "-//W3C//DTD SVG 20010904//EN"
 "http://www.w3.org/TR/2001/REC-SVG-20010904/DTD/svg10.dtd">
<svg version="1.0" xmlns="http://www.w3.org/2000/svg"
 width="40.800000pt" height="7.680000pt" viewBox="0 0 40.800000 7.680000"
 preserveAspectRatio="xMidYMid meet">
<metadata>
Created by potrace 1.13, written by Peter Selinger 2001-2015
</metadata>
<g transform="translate(0.000000,7.680000) scale(0.024000,-0.024000)"
fill="#000000" stroke="none">
<path d="M0 268 l0 -52 20 22 c15 16 32 22 63 22 24 0 48 5 54 11 6 6 31 12
56 14 25 2 56 10 68 19 22 15 15 16 -119 16 l-142 0 0 -52z"/>
<path d="M333 309 c9 -5 24 -23 32 -40 13 -23 13 -34 4 -52 -7 -12 -12 -39
-10 -59 3 -65 -36 -119 -106 -144 l-38 -13 77 -1 c52 0 78 4 81 13 4 9 6 9 6
0 1 -10 27 -13 98 -13 68 0 94 3 86 11 -5 5 -40 10 -77 10 -73 0 -94 16 -62
47 14 14 18 15 25 3 11 -18 61 -18 72 0 6 10 9 11 9 2 0 -8 13 -13 31 -13 30
0 31 -2 26 -30 l-6 -30 64 0 c37 0 65 4 65 10 0 10 -18 14 -58 10 -23 -2 -52
15 -52 31 0 5 10 13 21 20 17 8 23 8 30 -2 8 -13 132 -15 191 -3 15 3 33 2 40
-2 7 -5 25 -7 40 -5 23 2 28 -2 28 -18 0 -17 -6 -21 -30 -21 -17 0 -30 5 -30
13 0 9 -2 9 -9 -1 -5 -9 -24 -13 -52 -11 -69 3 -99 0 -99 -10 0 -6 80 -10 190
-11 148 0 190 2 190 12 0 9 -13 12 -44 10 -36 -3 -45 -1 -49 15 -4 16 -5 16
-6 1 -1 -23 -39 -24 -48 -2 -3 8 2 23 11 32 14 14 18 15 25 3 5 -8 16 -11 25
-8 20 8 21 53 1 61 -8 3 -15 13 -15 23 0 15 -3 14 -16 -5 -20 -29 -86 -31
-106 -3 -14 19 -14 19 -26 1 -9 -15 -23 -19 -74 -19 -35 1 -69 5 -75 11 -9 7
-13 7 -13 -1 0 -6 -15 -11 -34 -11 -69 0 -102 94 -51 145 15 16 36 25 55 25
25 0 30 -4 30 -25 0 -20 -5 -25 -24 -25 -26 0 -40 -23 -31 -51 7 -21 45 -26
45 -6 0 33 26 49 81 51 30 1 64 -1 77 -6 20 -7 22 -4 22 27 0 31 3 35 25 35
20 0 25 -5 25 -25 0 -20 5 -25 27 -25 14 0 35 -7 45 -17 21 -18 25 -3 6 26
-21 34 -4 49 56 49 l56 0 0 -78 c0 -57 -4 -81 -15 -90 -8 -7 -15 -23 -15 -35
0 -14 -7 -26 -17 -29 -10 -2 11 -5 47 -4 158 1 170 -1 170 -22 0 -18 -7 -20
-80 -20 -47 0 -80 -4 -80 -10 0 -6 103 -10 290 -10 l290 0 0 160 0 160 -692 0
c-476 -1 -688 -4 -675 -11z m1228 -87 c1 -16 2 -16 6 1 2 9 10 17 17 17 10 0
11 -8 2 -35 -12 -39 -33 -46 -38 -13 -5 32 -28 35 -28 4 0 -35 -20 -33 -21 2
l-2 27 -4 -27 c-5 -35 -23 -37 -23 -3 0 14 -4 25 -10 25 -5 0 -10 -11 -10 -25
0 -34 -20 -32 -21 3 l-2 27 -4 -27 c-4 -27 -33 -40 -33 -15 0 9 -2 9 -8 0 -4
-7 -35 -12 -80 -12 l-72 0 0 33 0 33 165 1 c150 2 165 0 166 -16z m-81 -79 c1
-17 1 -17 11 0 18 31 39 20 38 -20 -1 -37 -1 -38 -9 -8 l-7 30 -7 -26 c-7 -24
-10 -25 -92 -26 -68 -1 -86 2 -93 15 -20 35 4 49 84 51 66 1 75 -1 75 -16z
m202 -16 l4 -34 -71 1 c-59 1 -70 4 -73 19 -7 37 5 44 71 46 l65 1 4 -33z"/>
<path d="M1281 204 c0 -11 3 -14 6 -6 3 7 2 16 -1 19 -3 4 -6 -2 -5 -13z"/>
<path d="M1338 213 c7 -3 16 -2 19 1 4 3 -2 6 -13 5 -11 0 -14 -3 -6 -6z"/>
<path d="M1461 124 c0 -11 3 -14 6 -6 3 7 2 16 -1 19 -3 4 -6 -2 -5 -13z"/>
<path d="M1560 125 c0 -9 6 -12 15 -9 8 4 15 7 15 9 0 2 -7 5 -15 9 -9 3 -15
0 -15 -9z"/>
<path d="M1620 120 c-9 -6 -10 -10 -3 -10 6 0 15 5 18 10 8 12 4 12 -15 0z"/>
<path d="M287 273 c-3 -5 6 -16 19 -26 18 -13 24 -15 24 -4 0 24 -33 47 -43
30z"/>
<path d="M1055 270 c3 -5 8 -10 11 -10 2 0 4 5 4 10 0 6 -5 10 -11 10 -5 0 -7
-4 -4 -10z"/>
<path d="M1063 243 c-15 -5 -18 -83 -4 -83 5 0 11 20 13 45 2 25 3 45 3 44 0
0 -6 -3 -12 -6z"/>
<path d="M44 206 c-3 -8 -1 -23 5 -33 10 -17 10 -17 11 3 0 11 5 25 12 32 9 9
8 12 -5 12 -10 0 -20 -6 -23 -14z"/>
<path d="M730 181 c0 -25 20 -38 31 -20 15 23 10 39 -11 39 -13 0 -20 -7 -20
-19z"/>
<path d="M806 183 c-8 -19 8 -38 23 -29 16 10 13 46 -3 46 -8 0 -17 -8 -20
-17z"/>
<path d="M922 183 c2 -10 10 -18 18 -18 8 0 16 8 18 18 2 12 -3 17 -18 17 -15
0 -20 -5 -18 -17z"/>
<path d="M1 83 l-1 -83 93 0 c92 1 92 1 52 15 -45 16 -85 56 -85 86 0 10 -6
19 -14 19 -7 0 -21 10 -29 23 -15 21 -16 17 -16 -60z"/>
<path d="M172 128 c-7 -7 -12 -26 -12 -42 0 -20 3 -26 8 -18 5 7 16 10 25 6 9
-3 17 -2 17 4 0 5 -7 12 -15 16 -18 7 -20 32 -2 39 6 3 7 6 2 6 -6 1 -16 -4
-23 -11z"/>
<path d="M233 102 c-1 -32 0 -35 11 -19 21 28 30 19 10 -10 -15 -24 -15 -26
-1 -15 23 19 31 50 17 67 -21 25 -35 16 -37 -23z"/>
<path d="M188 48 c6 -6 18 -8 28 -6 14 3 12 5 -9 10 -19 3 -25 2 -19 -4z"/>
<path d="M430 49 c0 -5 5 -7 10 -4 6 3 10 8 10 11 0 2 -4 4 -10 4 -5 0 -10 -5
-10 -11z"/>
<path d="M625 50 c-3 -5 -1 -10 4 -10 6 0 11 5 11 10 0 6 -2 10 -4 10 -3 0 -8
-4 -11 -10z"/>
</g>
</svg>
