<?xml version="1.0" standalone="no"?>
<!DOCTYPE svg PUBLIC "-//W3C//DTD SVG 20010904//EN"
 "http://www.w3.org/TR/2001/REC-SVG-20010904/DTD/svg10.dtd">
<svg version="1.0" xmlns="http://www.w3.org/2000/svg"
 width="243.360000pt" height="96.000000pt" viewBox="0 0 243.360000 96.000000"
 preserveAspectRatio="xMidYMid meet">
<metadata>
Created by potrace 1.13, written by Peter Selinger 2001-2015
</metadata>
<g transform="translate(0.000000,96.000000) scale(0.024000,-0.024000)"
fill="#000000" stroke="none">
<path d="M0 2000 l0 -2000 5070 0 5070 0 -1 1138 c-1 979 -3 1129 -14 1081
-61 -248 -276 -458 -530 -514 -117 -26 -274 -17 -386 22 -375 130 -567 538
-430 913 144 392 598 571 977 384 177 -87 316 -259 368 -454 13 -50 15 17 15
688 l1 742 -5070 0 -5070 0 0 -2000z m922 1455 c255 -53 447 -255 448 -472 l0
-43 -210 0 -210 0 0 29 c0 105 -94 180 -224 181 -90 0 -141 -16 -187 -60 -90
-85 -53 -186 94 -257 34 -17 123 -52 197 -78 316 -111 465 -228 522 -409 27
-85 21 -245 -12 -331 -46 -118 -183 -226 -346 -271 -92 -25 -349 -31 -455 -9
-92 18 -193 55 -251 92 l-38 23 -1 -22 c0 -22 -1 -22 -10 2 -6 14 -34 50 -63
80 -93 95 -141 196 -152 320 l-7 70 210 0 210 0 7 -51 c19 -144 113 -212 291
-212 128 0 205 53 213 147 9 109 -48 164 -243 236 -218 80 -299 115 -374 161
-158 97 -247 225 -258 370 -19 251 148 437 452 504 85 18 307 18 397 0z m6433
0 c217 -46 350 -187 377 -401 10 -77 9 -104 -5 -175 -30 -156 -106 -275 -315
-498 -59 -63 -148 -162 -199 -220 l-92 -106 330 -3 329 -2 0 -155 0 -155 -600
0 -600 0 0 133 1 132 286 300 c293 307 381 412 428 511 87 184 -6 368 -172
341 -87 -14 -156 -103 -170 -215 l-6 -52 -203 0 -203 0 6 53 c3 28 9 69 13 90
7 31 5 37 -9 38 -14 1 -14 2 1 6 9 2 34 38 54 80 70 140 202 247 366 294 81
23 283 25 383 4z m-4577 -852 c172 -467 312 -851 312 -855 0 -5 -101 -8 -224
-8 l-224 0 -32 103 c-17 56 -39 127 -49 157 l-18 55 -276 3 -276 2 -41 -132
c-23 -73 -45 -144 -49 -158 l-8 -25 -226 -3 -227 -2 23 62 c13 35 154 420 313
855 l289 793 200 0 201 0 312 -847z m1162 268 c102 -319 188 -576 192 -573 3
4 89 265 189 580 l183 572 278 0 278 0 0 -855 0 -855 -215 0 -215 0 0 168 c0
92 9 352 20 576 12 225 19 410 18 412 -2 1 -91 -257 -199 -574 l-196 -577
-143 0 -144 0 -195 577 c-108 317 -197 571 -199 564 -2 -8 6 -197 17 -421 12
-223 21 -478 21 -566 l0 -159 -215 0 -215 0 0 855 0 855 278 0 277 0 185 -579z
m1790 -116 l0 -695 355 0 355 0 0 -160 0 -160 -570 0 -570 0 0 855 0 855 215
0 215 0 0 -695z m-632 -1239 c85 -39 145 -106 172 -193 11 -36 20 -76 20 -89
0 -24 0 -24 -115 -24 l-115 0 -6 28 c-20 83 -68 122 -153 122 -70 0 -109 -25
-147 -92 -29 -53 -29 -54 -29 -218 0 -159 1 -167 26 -215 36 -67 85 -95 168
-95 34 0 77 7 96 14 l35 15 0 70 0 71 -80 0 -80 0 0 85 0 85 200 0 200 0 -2
-207 -3 -208 -47 -32 c-26 -17 -78 -42 -115 -55 -59 -20 -87 -23 -213 -23
-135 0 -149 2 -200 26 -101 47 -167 121 -210 234 -31 82 -40 306 -16 408 38
160 130 268 269 313 28 9 81 13 162 11 108 -2 126 -5 183 -31z m-3898 -208
c39 -123 85 -267 103 -320 17 -54 34 -98 38 -98 3 0 11 19 18 43 7 23 53 167
102 320 l90 277 159 0 160 0 0 -485 0 -485 -127 0 -126 0 6 173 c4 94 9 235
12 312 l6 140 -74 -210 c-41 -116 -89 -255 -108 -310 l-34 -100 -85 -3 -85 -3
-113 328 c-62 181 -110 310 -107 288 3 -22 8 -169 12 -327 l6 -288 -121 0
-122 0 0 485 0 485 159 0 159 0 72 -222z m1490 127 l0 -95 -220 0 -220 0 0
-95 0 -95 185 0 185 0 0 -90 0 -90 -185 0 -185 0 0 -110 0 -110 220 0 220 0 0
-95 0 -95 -340 0 -340 0 0 485 0 485 340 0 340 0 0 -95z m870 0 l0 -95 -145 0
-145 0 0 -390 0 -390 -120 0 -120 0 0 390 0 390 -145 0 -145 0 0 95 0 95 410
0 410 0 0 -95z m697 -375 c95 -256 175 -473 179 -483 5 -16 -4 -17 -127 -15
l-133 3 -26 83 -25 82 -160 -2 -160 -3 -24 -82 -24 -83 -133 0 -134 0 11 28
c6 15 82 221 169 457 87 237 163 443 169 458 l11 28 117 -3 117 -3 173 -465z
m1843 375 l0 -95 -220 0 -220 0 0 -95 0 -95 185 0 185 0 0 -90 0 -90 -185 0
-185 0 0 -110 0 -110 220 0 220 0 0 -95 0 -95 -340 0 -340 0 0 485 0 485 340
0 340 0 0 -95z m500 -195 l165 -289 3 289 2 290 120 0 120 0 0 -485 0 -485
-123 0 -123 0 -167 293 -167 292 0 -292 0 -293 -120 0 -120 0 0 485 0 485 123
0 122 0 165 -290z m1001 43 c-3 -20 -12 -38 -20 -41 -10 -3 -11 3 -6 29 9 39
13 49 24 49 4 0 5 -17 2 -37z m-6931 -87 l0 -104 -146 -51 c-80 -28 -156 -54
-170 -57 -13 -3 -24 -10 -24 -14 0 -5 77 -34 170 -65 l170 -57 0 -104 c0 -75
-3 -104 -12 -104 -7 0 -142 53 -300 117 l-288 117 0 96 0 95 283 117 c155 64
290 116 300 117 15 1 17 -10 17 -103z m6790 -14 l285 -118 0 -94 0 -94 -285
-118 c-157 -64 -291 -117 -297 -118 -10 0 -13 27 -13 104 0 90 2 105 18 111 9
4 82 29 162 57 80 27 148 53 152 57 5 4 -31 20 -80 35 -48 16 -124 42 -169 58
l-83 30 0 104 c0 77 3 104 13 104 6 -1 140 -54 297 -118z"/>
<path d="M2181 2677 c-46 -150 -86 -278 -88 -284 -4 -10 34 -13 171 -13 97 0
176 3 176 6 0 6 -171 558 -174 561 -1 1 -39 -120 -85 -270z"/>
<path d="M3921 1092 c-25 -81 -47 -153 -49 -159 -3 -10 19 -13 92 -13 53 0 96
3 96 7 0 7 -91 306 -94 310 0 0 -21 -65 -45 -145z"/>
<path d="M9360 2934 c-156 -30 -286 -115 -369 -240 -66 -99 -92 -183 -93 -299
0 -299 244 -545 542 -545 241 0 456 166 525 404 26 89 17 249 -19 336 -82 201
-269 335 -481 345 -44 2 -91 1 -105 -1z m177 -235 c49 -15 90 -68 98 -128 15
-113 -23 -182 -179 -319 l-60 -52 127 0 127 0 0 -60 0 -60 -210 0 -210 0 0 56
0 57 110 114 c61 62 119 128 130 146 26 43 26 91 -1 118 -21 21 -28 21 -125
16 l-104 -7 0 33 c0 17 -3 42 -6 54 -5 19 0 22 48 32 104 21 186 21 255 0z"/>
</g>
</svg>
